<svg xmlns="http://www.w3.org/2000/svg" viewBox="0 0 303 35.5"><defs><style>.\35 43d11c6-3c00-448e-bd6e-d7558a2ed394{fill:#067eb1;}</style></defs><title>Plan de travail 1</title><g id="13851ec4-f04c-49b9-9f0a-63bfaf923694" data-name="Calque 2"><path class="543d11c6-3c00-448e-bd6e-d7558a2ed394" d="M2.84,5.5H5.22V30.81H17.34v2H2.84Z"/><path class="543d11c6-3c00-448e-bd6e-d7558a2ed394" d="M20,15.44a7.62,7.62,0,0,1,7.67-5.6c5.75,0,7.17,4,7.17,7.75v9.7c0,2,.11,5.06.15,5.52H32.75l-.15-3.6c-1.8,2-3.91,4.06-7.4,4.06A5.94,5.94,0,0,1,18.91,27c0-6.86,6.29-7.71,12.12-7.71H32.6c-.12-4-.23-7.44-5.21-7.44-3.49,0-4.56,2.45-5.41,4.26ZM32.6,21.11H31.1c-5.64,0-9.82.73-9.82,5.6,0,3.34,2.26,4.41,4.29,4.41,2.76,0,4.29-1.53,7-4.18Z"/><path class="543d11c6-3c00-448e-bd6e-d7558a2ed394" d="M40.26,5.5h9.39c4.68,0,8.36,2.3,8.36,7.32,0,5.25-3.6,6.52-5,7l6.52,13H55.33L49.7,20.46H43.79V32.81H40.26Zm3.53,12.12h5.56c4,0,5.14-2.42,5.14-4.52,0-4.56-3.95-4.75-5.52-4.75H43.79Z"/><path class="543d11c6-3c00-448e-bd6e-d7558a2ed394" d="M65.15,22.34c.15,6.1,3,8.24,6,8.24a5.49,5.49,0,0,0,5.45-4l3,1a8.58,8.58,0,0,1-8.4,5.64c-8.05,0-9.55-7.21-9.55-11.81s1.5-11.77,9.55-11.77c6.52,0,8.86,5.64,8.86,11v1.69ZM76.5,19.81c0-4.06-1.84-7.44-5.44-7.44s-5.45,2.8-5.91,7.44Z"/><path class="543d11c6-3c00-448e-bd6e-d7558a2ed394" d="M85.32,10.14l3.95,13c.61,2,1,3.34,1.8,6.33h.19c.81-3,1.15-4.33,1.8-6.33l4.14-13h3.37l-7.4,22.66H89L81.56,10.14Z"/><path class="543d11c6-3c00-448e-bd6e-d7558a2ed394" d="M120,32.81H116.6V29.12c-1.84,1.65-4.22,4.14-7.67,4.14s-5.64-2.11-5.6-6.4V10.14h3.37V25.64c0,2.3.54,4.56,3.34,4.56,3.14,0,5.18-2.3,6.56-3.91V10.14H120Z"/><path class="543d11c6-3c00-448e-bd6e-d7558a2ed394" d="M127.64,22.34c.15,6.1,3,8.24,6,8.24a5.49,5.49,0,0,0,5.45-4l3,1a8.58,8.58,0,0,1-8.4,5.64c-8.05,0-9.55-7.21-9.55-11.81s1.5-11.77,9.55-11.77c6.52,0,8.86,5.64,8.86,11v1.69ZM139,19.81c0-4.06-1.84-7.44-5.44-7.44s-5.45,2.8-5.91,7.44Z"/><path class="543d11c6-3c00-448e-bd6e-d7558a2ed394" d="M146.51,5.5h11.2c8.36,0,13.61,4.6,13.61,13.46,0,9.39-5.87,13.84-14.15,13.84H146.51ZM154,27.21h2.34c5.41,0,7.06-3,7.06-8.05,0-4.56-2-8.05-7-8.05H154Z"/><path class="543d11c6-3c00-448e-bd6e-d7558a2ed394" d="M194.59,32.81h-7.21V30.12c-3.14,2.57-4.6,3.22-7.17,3.22-4.45,0-5.79-3-5.79-7.06V9.68h7.21V24.91c0,1.53.42,2.53,2.15,2.53,1.27,0,2.07-.58,3.6-1.92V9.68h7.21Z"/><path class="543d11c6-3c00-448e-bd6e-d7558a2ed394" d="M199.45,9.68h7.21V13.4h.08a7.6,7.6,0,0,1,6.21-4,7.44,7.44,0,0,1,1.3.12V16a5.64,5.64,0,0,0-2.34-.34,6.3,6.3,0,0,0-5.25,2.57V32.81h-7.21Z"/><path class="543d11c6-3c00-448e-bd6e-d7558a2ed394" d="M235.11,28.74c0,1.38,0,3,.15,4.06h-7c0-1-.15-2.15-.15-3H228c-1.57,1.53-3.8,3.53-6.52,3.53-5.14,0-6.59-4.22-6.59-7,0-5.75,4.95-8.28,10.39-8.28.92,0,2,.08,2.72.15v-.73c0-2.22-.58-3.53-2.84-3.53-2.11,0-2.88,1.61-3.14,3.11l-6.4-1.84c.34-1.07,2-6.1,9.89-6.1,7.52,0,9.59,4.1,9.59,9.93ZM228,25.94V22.61c-.84-.08-1.76-.15-2.49-.15-2.22,0-3.64,1.19-3.64,3.11a2.18,2.18,0,0,0,2.3,2.26A6.2,6.2,0,0,0,228,25.94Z"/><path class="543d11c6-3c00-448e-bd6e-d7558a2ed394" d="M239.9,3h7.21v9c1.84-1.57,3.34-2.88,6.17-2.88,6.79,0,8.05,6.6,8.05,11.77,0,5.83-1.27,12.42-7.86,12.42-1.8,0-3.83-.42-6.37-3v2.45H239.9Zm7.21,23.2c1,.88,1.84,1.76,3.41,1.76,3.22,0,3.45-4.33,3.45-6.44,0-2.88-.15-7-3.53-7-1.46,0-2.34.81-3.34,1.88Z"/><path class="543d11c6-3c00-448e-bd6e-d7558a2ed394" d="M265.4,3h7.21V32.81H265.4Z"/><path class="543d11c6-3c00-448e-bd6e-d7558a2ed394" d="M298,21.38v1.84H283.65c0,1.53,0,5,3.6,5,2.34,0,3.14-1.73,3.64-2.8l6.1,2c-2.07,4.37-5.14,5.94-9.85,5.94-9.16,0-10.85-7.82-10.85-12,0-6.71,3.72-12.19,10.85-12.19C293.2,9.15,298,12.79,298,21.38ZM290.9,18.5c-.08-1.46-.42-4.52-3.49-4.52-3.37,0-3.76,3.11-3.76,4.52Z"/></g></svg>